<svg width="22" height="14" viewBox="0 0 22 14" fill="none" xmlns="http://www.w3.org/2000/svg">
<path fill-rule="evenodd" clip-rule="evenodd" d="M0 1.27273C0 0.935179 0.128769 0.611456 0.357981 0.372773C0.587192 0.134091 0.898069 0 1.22222 0H20.7778C21.1019 0 21.4128 0.134091 21.642 0.372773C21.8712 0.611456 22 0.935179 22 1.27273C22 1.61028 21.8712 1.934 21.642 2.17268C21.4128 2.41136 21.1019 2.54545 20.7778 2.54545H1.22222C0.898069 2.54545 0.587192 2.41136 0.357981 2.17268C0.128769 1.934 0 1.61028 0 1.27273ZM2.44444 7C2.44444 6.66245 2.57321 6.33873 2.80243 6.10005C3.03164 5.86136 3.34251 5.72727 3.66667 5.72727H18.3333C18.6575 5.72727 18.9684 5.86136 19.1976 6.10005C19.4268 6.33873 19.5556 6.66245 19.5556 7C19.5556 7.33755 19.4268 7.66127 19.1976 7.89995C18.9684 8.13864 18.6575 8.27273 18.3333 8.27273H3.66667C3.34251 8.27273 3.03164 8.13864 2.80243 7.89995C2.57321 7.66127 2.44444 7.33755 2.44444 7ZM6.11111 12.7273C6.11111 12.3897 6.23988 12.066 6.46909 11.8273C6.6983 11.5886 7.00918 11.4545 7.33333 11.4545H14.6667C14.9908 11.4545 15.3017 11.5886 15.5309 11.8273C15.7601 12.066 15.8889 12.3897 15.8889 12.7273C15.8889 13.0648 15.7601 13.3885 15.5309 13.6272C15.3017 13.8659 14.9908 14 14.6667 14H7.33333C7.00918 14 6.6983 13.8659 6.46909 13.6272C6.23988 13.3885 6.11111 13.0648 6.11111 12.7273Z" fill="#41AFA4"/>
</svg>
