<svg width="24" height="24" viewBox="0 0 24 24" fill="none" xmlns="http://www.w3.org/2000/svg">
<path fill-rule="evenodd" clip-rule="evenodd" d="M12.2859 0C9.91501 0 7.91443 0.675429 6.50529 2.09486C5.09958 3.51257 4.43101 5.52686 4.43101 7.90971C4.43101 8.85257 4.29386 9.38743 4.14643 9.71314C4.00586 10.0251 3.82415 10.2223 3.56015 10.4657L3.45215 10.5634C3.19843 10.7914 2.82129 11.1291 2.54015 11.5869C2.18358 12.1629 2.00015 12.8657 2.00015 13.7863C2.00015 15.0446 2.69615 15.9651 3.56358 16.5891C4.40701 17.1977 5.49558 17.592 6.56015 17.8594C8.70129 18.3977 11.1047 18.5006 12.2859 18.5006C13.467 18.5006 15.8704 18.3977 18.0116 17.8594C19.0761 17.592 20.163 17.1977 21.0082 16.5909C21.8756 15.9651 22.5716 15.0446 22.5716 13.7863C22.5716 12.864 22.3881 12.1629 22.0333 11.5869C21.7793 11.2037 21.4716 10.8591 21.1196 10.5634L21.0099 10.4657C20.7476 10.2223 20.5659 10.0251 20.4253 9.71314C20.2779 9.38743 20.1407 8.85429 20.1407 7.90971C20.1407 5.52686 19.4721 3.51257 18.0664 2.09486C16.6573 0.675429 14.655 0 12.2859 0ZM6.57386 7.90971C6.57386 5.916 7.12758 4.51029 8.02758 3.60343C8.92758 2.69657 10.3144 2.14286 12.2859 2.14286C14.2573 2.14286 15.6459 2.69829 16.5441 3.60343C17.4441 4.512 17.9979 5.91771 17.9979 7.90971C17.9979 9.05314 18.1642 9.91029 18.4727 10.5943C18.7881 11.2937 19.2133 11.7223 19.5579 12.0411L19.719 12.1886C19.9744 12.42 20.0996 12.5349 20.2076 12.7114C20.3087 12.8743 20.4287 13.1623 20.4287 13.7863C20.4287 14.1463 20.259 14.4891 19.7567 14.8491C19.2304 15.2297 18.4436 15.5417 17.4904 15.7817C15.5961 16.2566 13.3933 16.3577 12.2859 16.3577C11.1784 16.3577 8.97558 16.2566 7.08129 15.7817C6.12815 15.5417 5.34129 15.228 4.81501 14.8509C4.31272 14.4874 4.14301 14.1446 4.14301 13.7863C4.14301 13.1623 4.26301 12.8743 4.36415 12.7114C4.47215 12.5349 4.59729 12.42 4.85101 12.1886L5.01386 12.0411C5.35672 11.7223 5.78529 11.2937 6.09901 10.5943C6.40758 9.91029 6.57386 9.05314 6.57386 7.90971ZM9.56872 19.812C9.39475 19.812 9.2234 19.8544 9.06949 19.9355C8.91557 20.0166 8.78372 20.1339 8.68531 20.2774C8.58691 20.4209 8.52493 20.5861 8.50471 20.7589C8.4845 20.9317 8.50666 21.1068 8.56929 21.2691C8.85386 22.0046 9.34072 22.6011 10.0127 23.004C10.6744 23.3983 11.4527 23.5714 12.2859 23.5714C13.1173 23.5714 13.8973 23.4 14.5573 23.004C15.231 22.6011 15.7179 22.0046 16.0007 21.2691C16.0633 21.1068 16.0855 20.9317 16.0653 20.7589C16.0451 20.5861 15.9831 20.4209 15.8847 20.2774C15.7863 20.1339 15.6544 20.0166 15.5005 19.9355C15.3466 19.8544 15.1753 19.812 15.0013 19.812H9.56872Z" fill="black"/>
</svg>
