<svg width="21" height="23" viewBox="0 0 21 23" fill="none" xmlns="http://www.w3.org/2000/svg">
<path fill-rule="evenodd" clip-rule="evenodd" d="M9.97763 2.69735C5.87869 2.69735 2.55837 6.19624 2.55837 10.5091C2.55837 14.8219 5.87869 18.3208 9.97763 18.3208C12.0226 18.3208 13.8721 17.4514 15.2153 16.0418C16.5645 14.6258 17.3969 12.6709 17.3969 10.5091C17.3969 6.19624 14.0766 2.69735 9.97763 2.69735ZM0 10.5091C0 4.7036 4.46853 0 9.97763 0C15.4867 0 19.9553 4.7036 19.9553 10.5091C19.9553 12.9302 19.1767 15.1614 17.871 16.9378L20.6034 19.8154C21.1033 20.3417 21.1037 21.1957 20.6045 21.7227C20.1052 22.2497 19.2953 22.2501 18.7954 21.7238L16.0585 18.8415C14.3754 20.2057 12.2656 21.0181 9.97763 21.0181C4.46853 21.0181 0 16.3145 0 10.5091Z" fill="black"/>
</svg>
